#Comment line ignore any data following # character 
#Hierarchical Translation and Rotation (.htr) file 
[Header]	
#Header keywords are followed by a single value 
FileType HTR		#Single word string
DataType HTRS		#Translation followed by rotation and scale data
FileVersion 1		#integer
NumSegments 84		#integer
NumFrames 2		#integer
DataFrameRate 30		#integer, data frame rate in this file
EulerRotationOrder ZYX
CalibrationUnits mm
RotationUnits Degrees
GlobalAxisofGravity Y
BoneLengthAxis Y
ScaleFactor 1.00
[SegmentNames&Hierarchy]
#CHILD	PARENT
MASTER GLOBAL
root MASTER
chest root
L_mid_tent01 root
R_mid_tent01 root
spine01 root
Bip01_Neck chest
L_humerus chest
R_humerus chest
weapon_bone chest
Bip01_Head Bip01_Neck
eye_left_bone Bip01_Head
eye_right_bone Bip01_Head
L_forearm L_humerus
L_front_hand L_forearm
L_weapon_bone L_forearm
L_front_hand01_01 L_front_hand
L_front_hand02_01 L_front_hand
L_front_hand03_01 L_front_hand
L_front_hand01_02 L_front_hand01_01
L_front_hand02_02 L_front_hand02_01
L_front_hand03_02 L_front_hand03_01
R_forearm R_humerus
R_front_hand R_forearm
R_weapon_bone R_forearm
R_front_hand01_01 R_front_hand
R_front_hand02_01 R_front_hand
R_front_hand03_01 R_front_hand
R_front_hand01_02 R_front_hand01_01
R_front_hand02_02 R_front_hand02_01
R_front_hand03_02 R_front_hand03_01
null_rope01_connect L_mid_tent01
Rope1_Seg01 null_rope01_connect
Rope1_Seg02 Rope1_Seg01
Rope1_Seg03 Rope1_Seg02
Rope1_Seg04 Rope1_Seg03
Rope1_Seg05 Rope1_Seg04
Rope1_Seg06 Rope1_Seg05
Rope1_Seg07 Rope1_Seg06
Rope1_Seg09 Rope1_Seg07
L_mid_hand01 Rope1_Seg09
L_mid_hand02 Rope1_Seg09
L_mid_hand03 Rope1_Seg09
null_rope02_connect R_mid_tent01
Rope2_Seg01 null_rope02_connect
Rope2_Seg02 Rope2_Seg01
Rope2_Seg03 Rope2_Seg02
Rope2_Seg04 Rope2_Seg03
Rope2_Seg05 Rope2_Seg04
Rope2_Seg06 Rope2_Seg05
Rope2_Seg07 Rope2_Seg06
Rope2_Seg09 Rope2_Seg07
R_mid_hand01 Rope2_Seg09
R_mid_hand02 Rope2_Seg09
R_mid_hand03 Rope2_Seg09
spine02 spine01
spine03 spine02
pelvis spine03
null_rope03_connect pelvis
null_rope04_connect pelvis
Rope3_Seg01 null_rope03_connect
Rope3_Seg02 Rope3_Seg01
Rope3_Seg03 Rope3_Seg02
Rope3_Seg04 Rope3_Seg03
Rope3_Seg05 Rope3_Seg04
Rope3_Seg06 Rope3_Seg05
Rope3_Seg07 Rope3_Seg06
Rope3_Seg08 Rope3_Seg07
Rope3_Seg09 Rope3_Seg08
R_rear_hand01 Rope3_Seg09
R_rear_hand02 Rope3_Seg09
R_rear_hand03 Rope3_Seg09
Rope4_Seg01 null_rope04_connect
Rope4_Seg02 Rope4_Seg01
Rope4_Seg03 Rope4_Seg02
Rope4_Seg04 Rope4_Seg03
Rope4_Seg05 Rope4_Seg04
Rope4_Seg06 Rope4_Seg05
Rope4_Seg07 Rope4_Seg06
Rope4_Seg08 Rope4_Seg07
Rope4_Seg09 Rope4_Seg08
L_rear_hand01 Rope4_Seg09
L_rear_hand02 Rope4_Seg09
L_rear_hand03 Rope4_Seg09
[BasePosition]
#SegmentName Tx, Ty, Tz, Rx, Ry, Rz, BoneLength
MASTER 0.000000 0.000000 0.000000 -90.000000 0.000000 0.000000 10.000000 
root 0.000000 0.000000 0.000000 0.000000 0.000000 0.000000 10.000000 
chest 0.000000 0.000000 0.000000 0.000000 0.000000 0.000000 10.000000 
L_mid_tent01 0.000000 0.000000 0.000000 0.000000 0.000000 0.000000 10.000000 
R_mid_tent01 0.000000 0.000000 0.000000 0.000000 0.000000 0.000000 10.000000 
spine01 0.000000 0.000000 0.000000 0.000000 0.000000 0.000000 10.000000 
Bip01_Neck 0.000000 0.000000 0.000000 0.000000 0.000000 0.000000 10.000000 
L_humerus 0.000000 0.000000 0.000000 0.000000 0.000000 0.000000 10.000000 
R_humerus 0.000000 0.000000 0.000000 0.000000 0.000000 0.000000 10.000000 
weapon_bone 0.000000 0.000000 0.000000 0.000000 0.000000 0.000000 10.000000 
Bip01_Head 0.000000 0.000000 0.000000 0.000000 0.000000 0.000000 10.000000 
eye_left_bone 0.000000 0.000000 0.000000 0.000000 0.000000 0.000000 10.000000 
eye_right_bone 0.000000 0.000000 0.000000 0.000000 0.000000 0.000000 10.000000 
L_forearm 0.000000 0.000000 0.000000 0.000000 0.000000 0.000000 10.000000 
L_front_hand 0.000000 0.000000 0.000000 0.000000 0.000000 0.000000 10.000000 
L_weapon_bone 0.000000 0.000000 0.000000 0.000000 0.000000 0.000000 10.000000 
L_front_hand01_01 0.000000 0.000000 0.000000 0.000000 0.000000 0.000000 10.000000 
L_front_hand02_01 0.000000 0.000000 0.000000 0.000000 0.000000 0.000000 10.000000 
L_front_hand03_01 0.000000 0.000000 0.000000 0.000000 0.000000 0.000000 10.000000 
L_front_hand01_02 0.000000 0.000000 0.000000 0.000000 0.000000 0.000000 10.000000 
L_front_hand02_02 0.000000 0.000000 0.000000 0.000000 0.000000 0.000000 10.000000 
L_front_hand03_02 0.000000 0.000000 0.000000 0.000000 0.000000 0.000000 10.000000 
R_forearm 0.000000 0.000000 0.000000 0.000000 0.000000 0.000000 10.000000 
R_front_hand 0.000000 0.000000 0.000000 0.000000 0.000000 0.000000 10.000000 
R_weapon_bone 0.000000 0.000000 0.000000 0.000000 0.000000 0.000000 10.000000 
R_front_hand01_01 0.000000 0.000000 0.000000 0.000000 0.000000 0.000000 10.000000 
R_front_hand02_01 0.000000 0.000000 0.000000 0.000000 0.000000 0.000000 10.000000 
R_front_hand03_01 0.000000 0.000000 0.000000 0.000000 0.000000 0.000000 10.000000 
R_front_hand01_02 0.000000 0.000000 0.000000 0.000000 0.000000 0.000000 10.000000 
R_front_hand02_02 0.000000 0.000000 0.000000 0.000000 0.000000 0.000000 10.000000 
R_front_hand03_02 0.000000 0.000000 0.000000 0.000000 0.000000 0.000000 10.000000 
null_rope01_connect 0.000000 0.000000 0.000000 0.000000 0.000000 0.000000 10.000000 
Rope1_Seg01 0.000000 0.000000 0.000000 0.000000 0.000000 0.000000 10.000000 
Rope1_Seg02 0.000000 0.000000 0.000000 0.000000 0.000000 0.000000 10.000000 
Rope1_Seg03 0.000000 0.000000 0.000000 0.000000 0.000000 0.000000 10.000000 
Rope1_Seg04 0.000000 0.000000 0.000000 0.000000 0.000000 0.000000 10.000000 
Rope1_Seg05 0.000000 0.000000 0.000000 0.000000 0.000000 0.000000 10.000000 
Rope1_Seg06 0.000000 0.000000 0.000000 0.000000 0.000000 0.000000 10.000000 
Rope1_Seg07 0.000000 0.000000 0.000000 0.000000 0.000000 0.000000 10.000000 
Rope1_Seg09 0.000000 0.000000 0.000000 0.000000 0.000000 0.000000 10.000000 
L_mid_hand01 0.000000 0.000000 0.000000 0.000000 0.000000 0.000000 10.000000 
L_mid_hand02 0.000000 0.000000 0.000000 0.000000 0.000000 0.000000 10.000000 
L_mid_hand03 0.000000 0.000000 0.000000 0.000000 0.000000 0.000000 10.000000 
null_rope02_connect 0.000000 0.000000 0.000000 0.000000 0.000000 0.000000 10.000000 
Rope2_Seg01 0.000000 0.000000 0.000000 0.000000 0.000000 0.000000 10.000000 
Rope2_Seg02 0.000000 0.000000 0.000000 0.000000 0.000000 0.000000 10.000000 
Rope2_Seg03 0.000000 0.000000 0.000000 0.000000 0.000000 0.000000 10.000000 
Rope2_Seg04 0.000000 0.000000 0.000000 0.000000 0.000000 0.000000 10.000000 
Rope2_Seg05 0.000000 0.000000 0.000000 0.000000 0.000000 0.000000 10.000000 
Rope2_Seg06 0.000000 0.000000 0.000000 0.000000 0.000000 0.000000 10.000000 
Rope2_Seg07 0.000000 0.000000 0.000000 0.000000 0.000000 0.000000 10.000000 
Rope2_Seg09 0.000000 0.000000 0.000000 0.000000 0.000000 0.000000 10.000000 
R_mid_hand01 0.000000 0.000000 0.000000 0.000000 0.000000 0.000000 10.000000 
R_mid_hand02 0.000000 0.000000 0.000000 0.000000 0.000000 0.000000 10.000000 
R_mid_hand03 0.000000 0.000000 0.000000 0.000000 0.000000 0.000000 10.000000 
spine02 0.000000 0.000000 0.000000 0.000000 0.000000 0.000000 10.000000 
spine03 0.000000 0.000000 0.000000 0.000000 0.000000 0.000000 10.000000 
pelvis 0.000000 0.000000 0.000000 0.000000 0.000000 0.000000 10.000000 
null_rope03_connect 0.000000 0.000000 0.000000 0.000000 0.000000 0.000000 10.000000 
null_rope04_connect 0.000000 0.000000 0.000000 0.000000 0.000000 0.000000 10.000000 
Rope3_Seg01 0.000000 0.000000 0.000000 0.000000 0.000000 0.000000 10.000000 
Rope3_Seg02 0.000000 0.000000 0.000000 0.000000 0.000000 0.000000 10.000000 
Rope3_Seg03 0.000000 0.000000 0.000000 0.000000 0.000000 0.000000 10.000000 
Rope3_Seg04 0.000000 0.000000 0.000000 0.000000 0.000000 0.000000 10.000000 
Rope3_Seg05 0.000000 0.000000 0.000000 0.000000 0.000000 0.000000 10.000000 
Rope3_Seg06 0.000000 0.000000 0.000000 0.000000 0.000000 0.000000 10.000000 
Rope3_Seg07 0.000000 0.000000 0.000000 0.000000 0.000000 0.000000 10.000000 
Rope3_Seg08 0.000000 0.000000 0.000000 0.000000 0.000000 0.000000 10.000000 
Rope3_Seg09 0.000000 0.000000 0.000000 0.000000 0.000000 0.000000 10.000000 
R_rear_hand01 0.000000 0.000000 0.000000 0.000000 0.000000 0.000000 10.000000 
R_rear_hand02 0.000000 0.000000 0.000000 0.000000 0.000000 0.000000 10.000000 
R_rear_hand03 0.000000 0.000000 0.000000 0.000000 0.000000 0.000000 10.000000 
Rope4_Seg01 0.000000 0.000000 0.000000 0.000000 0.000000 0.000000 10.000000 
Rope4_Seg02 0.000000 0.000000 0.000000 0.000000 0.000000 0.000000 10.000000 
Rope4_Seg03 0.000000 0.000000 0.000000 0.000000 0.000000 0.000000 10.000000 
Rope4_Seg04 0.000000 0.000000 0.000000 0.000000 0.000000 0.000000 10.000000 
Rope4_Seg05 0.000000 0.000000 0.000000 0.000000 0.000000 0.000000 10.000000 
Rope4_Seg06 0.000000 0.000000 0.000000 0.000000 0.000000 0.000000 10.000000 
Rope4_Seg07 0.000000 0.000000 0.000000 0.000000 0.000000 0.000000 10.000000 
Rope4_Seg08 0.000000 0.000000 0.000000 0.000000 0.000000 0.000000 10.000000 
Rope4_Seg09 0.000000 0.000000 0.000000 0.000000 0.000000 0.000000 10.000000 
L_rear_hand01 0.000000 0.000000 0.000000 0.000000 0.000000 0.000000 10.000000 
L_rear_hand02 0.000000 0.000000 0.000000 0.000000 0.000000 0.000000 10.000000 
L_rear_hand03 0.000000 0.000000 0.000000 0.000000 0.000000 0.000000 10.000000 
#Beginning of Data. Separated by tabs
#Fr	Tx	Ty	Tz	Rx	Ry	Rz	SF
[MASTER]
7 0.000000 0.000000 0.000000 0.001660 0.001660 0.001660 0.000000
8 0.000000 0.000000 0.000000 0.001660 0.001660 0.001660 0.000000
[root]
7 -19.915638 -14.261790 1462.398193 -88.161957 -12.153275 -91.500893 1462.603271
8 -21.030521 -18.774546 1466.569580 -87.193100 -12.383571 -92.052910 1466.840454
[chest]
7 -84.512650 -34.090519 0.000000 -1.828727 0.902406 -175.464127 91.129311
8 -84.512650 -34.090519 0.000000 -1.869628 1.043684 -175.105255 91.129311
[L_mid_tent01]
7 27.299126 22.179188 -249.918716 4.272686 7.580241 81.400139 252.381714
8 27.299129 22.179195 -249.918716 5.409855 6.633280 85.390999 252.381714
[R_mid_tent01]
7 23.228794 24.509907 226.238495 165.137787 -7.666728 75.929359 228.744751
8 23.228794 24.509907 226.238495 163.756180 -5.464397 78.615181 228.744751
[spine01]
7 -0.361383 -0.195265 0.000000 -0.000001 -0.000007 22.052340 0.410763
8 -0.361383 -0.195265 0.000000 -0.000001 -0.000007 22.052340 0.410763
[Bip01_Neck]
7 165.484543 71.581718 0.000119 176.643677 -1.657967 43.431911 180.302734
8 165.484543 71.581718 0.000119 176.643677 -1.657967 43.431911 180.302734
[L_humerus]
7 -13.983130 -135.272980 -120.471481 179.354187 -6.093791 -160.257324 181.680161
8 -13.983130 -135.272980 -120.471481 178.943024 -6.078027 -159.123260 181.680161
[R_humerus]
7 -13.983309 -135.273102 125.287651 179.102341 5.040287 -155.861526 184.909012
8 -13.983309 -135.273102 125.287651 179.416412 5.125993 -154.768250 184.909012
[weapon_bone]
7 235.964890 -300.705902 0.000000 0.000000 -89.951546 -128.212341 382.234833
8 235.964890 -300.705902 0.000000 0.000000 -89.951546 -128.212341 382.234833
[Bip01_Head]
7 213.458023 185.677490 12.267515 4.981328 9.642986 -43.777096 283.180054
8 213.485031 185.602341 13.237507 4.982746 9.152985 -43.792870 283.194824
[eye_left_bone]
7 -24.626970 125.451866 -64.772606 0.000000 -90.000000 -99.840431 143.318359
8 -24.626970 125.451866 -64.772606 0.000000 -90.000000 -99.840431 143.318359
[eye_right_bone]
7 -24.626970 125.451866 64.327362 0.000000 -89.965736 80.156380 143.117676
8 -24.626970 125.451866 64.327362 0.000000 -89.965736 80.156380 143.117676
[L_forearm]
7 322.776093 0.000000 -0.000119 0.000396 -0.002314 -109.419975 322.776093
8 322.776093 0.000000 -0.000119 0.000396 -0.002314 -109.419968 322.776093
[L_front_hand]
7 241.149185 -0.042021 -3.300071 -178.667953 -1.835447 -27.422350 241.171753
8 241.149185 -0.042021 -3.300071 -178.667953 -1.835447 -27.422342 241.171753
[L_weapon_bone]
7 156.183838 0.000000 0.000000 0.000014 0.000007 0.000001 156.183838
8 156.183838 0.000000 0.000000 0.000014 0.000007 0.000001 156.183838
[L_front_hand01_01]
7 86.095154 20.947098 -0.655860 -0.335131 -0.500211 71.723785 88.609184
8 86.095154 20.947098 -0.655860 -0.320921 -0.506953 70.185371 88.609184
[L_front_hand02_01]
7 86.935165 -11.437475 24.513514 149.028946 -58.148323 -55.100948 91.046425
8 86.935165 -11.437475 24.513514 146.961243 -57.333778 -52.657810 91.046425
[L_front_hand03_01]
7 86.637497 -14.123976 -20.424902 -148.918808 56.366669 -56.764694 90.126129
8 86.637497 -14.123976 -20.424902 -146.985443 55.548409 -54.432819 90.126129
[L_front_hand01_02]
7 71.020905 -0.000179 0.000030 0.000317 -0.002326 -105.537254 71.020905
8 71.020905 -0.000179 0.000030 0.000317 -0.002326 -105.513657 71.020905
[L_front_hand02_02]
7 71.020927 -0.000119 0.000060 0.000317 -0.002326 -105.537254 71.020927
8 71.020927 -0.000119 0.000060 0.000317 -0.002326 -105.513657 71.020927
[L_front_hand03_02]
7 71.020905 -0.000060 0.000060 0.000317 -0.002326 -105.537254 71.020905
8 71.020905 -0.000060 0.000060 0.000317 -0.002326 -105.513657 71.020905
[R_forearm]
7 322.776428 -0.000060 0.000030 0.202103 0.065158 -108.062805 322.776428
8 322.776428 -0.000060 0.000030 0.202103 0.065158 -108.062820 322.776428
[R_front_hand]
7 238.847015 -0.006795 2.210259 -2.635298 -10.645461 -26.312506 238.857239
8 238.847015 -0.006795 2.210259 -2.635298 -10.645461 -26.312506 238.857239
[R_weapon_bone]
7 155.664093 0.002503 -0.000030 0.003487 0.001180 -90.988930 155.664078
8 155.664093 0.002503 -0.000030 0.003487 0.001180 -90.988930 155.664078
[R_front_hand01_01]
7 87.624611 14.231146 22.918642 -149.707169 -58.394505 56.007458 91.683487
8 87.624611 14.231146 22.918642 -147.670532 -57.619129 53.605923 91.683487
[R_front_hand02_01]
7 89.356956 14.367283 -19.491137 149.983444 56.758789 58.275921 92.579636
8 89.356956 14.367283 -19.491137 148.052353 55.989693 55.954597 92.579636
[R_front_hand03_01]
7 87.286232 -22.307278 -0.143439 0.134949 -0.432464 -72.452232 90.091743
8 87.286232 -22.307278 -0.143439 0.125269 -0.437058 -70.957245 90.091743
[R_front_hand01_02]
7 71.020905 0.000060 0.000119 0.002323 -0.000334 106.381714 71.020905
8 71.020905 0.000060 0.000119 0.002323 -0.000334 106.381706 71.020905
[R_front_hand02_02]
7 71.020844 -0.000030 -0.000119 0.002323 -0.000334 106.381714 71.020836
8 71.020844 -0.000030 -0.000119 0.002323 -0.000334 106.381706 71.020836
[R_front_hand03_02]
7 71.020905 0.000000 0.000030 0.002323 -0.000334 106.381714 71.020905
8 71.020905 0.000000 0.000030 0.002323 -0.000334 106.381706 71.020905
[null_rope01_connect]
7 328.732483 0.000000 -0.000238 -115.830956 -81.336983 136.731094 328.732483
8 328.732483 0.000000 -0.000238 -103.242180 -81.203819 120.367264 328.732483
[Rope1_Seg01]
7 0.000000 0.000000 0.000000 -44.858791 37.689049 -71.081726 0.000000
8 0.000000 0.000000 0.000000 -43.098633 35.510166 -71.984543 0.000000
[Rope1_Seg02]
7 139.999863 -0.000179 0.000000 -21.470991 18.940428 5.749268 139.999863
8 139.999863 -0.000179 0.000000 -17.925438 15.291788 6.104084 139.999863
[Rope1_Seg03]
7 139.999924 0.000060 -0.000060 -22.055489 15.131284 15.767884 139.999924
8 139.999924 0.000060 -0.000060 -20.053141 14.091177 13.001788 139.999924
[Rope1_Seg04]
7 139.999924 -0.000060 -0.000119 -10.607164 5.455855 13.938495 139.999924
8 139.999924 -0.000060 -0.000119 -12.802580 7.001394 16.295282 139.999924
[Rope1_Seg05]
7 139.999832 0.000119 -0.000060 -4.327939 8.109367 -2.299930 139.999832
8 139.999832 0.000119 -0.000060 -3.714539 3.823059 3.180454 139.999832
[Rope1_Seg06]
7 139.999954 0.000119 -0.000060 -4.534091 9.529944 -6.279515 139.999954
8 139.999954 0.000119 -0.000060 -1.136118 4.957300 -3.969121 139.999954
[Rope1_Seg07]
7 139.999985 0.000060 0.000000 -5.129408 5.102184 -1.119036 139.999985
8 139.999985 0.000060 0.000000 -2.277404 3.362168 -0.436344 139.999985
[Rope1_Seg09]
7 121.602913 0.000119 -0.000089 -89.793175 -1.359789 0.847147 121.602913
8 121.602913 0.000119 -0.000089 -89.793175 -1.359789 0.847147 121.602913
[L_mid_hand01]
7 103.859421 1.038730 8.195221 110.549706 -45.072769 -15.392938 104.187431
8 103.859421 1.038730 8.195221 109.437721 -41.837845 -13.776228 104.187431
[L_mid_hand02]
7 105.572853 -4.139662 -10.864139 -149.303925 33.991982 -42.687023 106.211075
8 105.572853 -4.139662 -10.864139 -147.395187 32.186741 -39.191986 106.211075
[L_mid_hand03]
7 104.641464 17.579376 -3.913581 -13.209494 13.449577 48.630802 106.179977
8 104.641464 17.579376 -3.913581 -13.988547 12.638442 45.197113 106.179977
[null_rope02_connect]
7 328.732849 0.000179 -0.000119 -96.886940 74.315048 55.599026 328.732849
8 328.732849 0.000179 -0.000119 -93.534172 74.389984 61.487946 328.732849
[Rope2_Seg01]
7 0.000095 0.000153 0.000025 103.064720 44.853615 -128.934692 0.000182
8 0.000095 0.000153 0.000030 110.113068 48.841846 -120.763405 0.000182
[Rope2_Seg02]
7 139.999741 -0.000060 -0.000119 5.253774 2.638863 -17.492153 139.999756
8 139.999741 -0.000060 -0.000119 6.115338 0.046996 -14.416588 139.999756
[Rope2_Seg03]
7 140.000107 0.000030 0.000000 11.993566 1.001942 -23.309816 140.000107
8 140.000107 0.000030 0.000000 9.790769 -1.780599 -17.342382 140.000107
[Rope2_Seg04]
7 139.999802 0.000000 -0.000060 16.481741 -5.101030 -22.334352 139.999802
8 139.999802 0.000000 -0.000060 12.486433 -5.130969 -18.128897 139.999802
[Rope2_Seg05]
7 139.999985 -0.000060 0.000119 6.849100 -3.034090 -9.145052 139.999985
8 139.999985 -0.000060 0.000119 6.462008 -4.508479 -9.016253 139.999985
[Rope2_Seg06]
7 139.999893 -0.000030 -0.000119 2.857505 1.803219 -5.115696 139.999893
8 139.999893 -0.000030 -0.000119 3.303144 -2.532602 -4.858394 139.999893
[Rope2_Seg07]
7 139.999893 0.000060 -0.000060 3.727766 2.137530 -5.791134 139.999893
8 139.999893 0.000060 -0.000060 3.786588 -3.023106 -5.624745 139.999893
[Rope2_Seg09]
7 121.338966 0.000089 -0.000060 33.793236 -1.359788 -0.847141 121.338966
8 121.338966 0.000089 -0.000060 33.793236 -1.359788 -0.847141 121.338966
[R_mid_hand01]
7 104.680779 11.144459 -10.335981 -28.447905 39.731525 52.443081 105.778534
8 104.680779 11.144459 -10.335981 -30.935734 37.970642 48.479172 105.778534
[R_mid_hand02]
7 104.070427 2.443552 8.231699 63.907375 -55.672985 22.555897 104.424065
8 104.070427 2.443552 8.231699 65.980988 -52.455704 19.994473 104.424065
[R_mid_hand03]
7 106.028137 -11.221827 -5.996406 -173.262527 14.339040 -61.789936 106.788818
8 106.028137 -11.221827 -5.996406 -172.374313 13.894678 -58.153652 106.788818
[spine02]
7 129.756927 0.001550 0.000119 0.360061 -4.044797 -12.915058 129.756927
8 129.756927 0.001550 0.000119 0.360061 -4.044797 -12.915058 129.756927
[spine03]
7 78.614059 0.081584 -4.899012 1.896495 3.831288 16.473045 78.766594
8 78.614059 0.081601 -4.899013 1.896495 3.831288 16.473045 78.766594
[pelvis]
7 169.435242 0.051022 0.000000 -0.060465 -0.180225 14.087930 169.435257
8 169.435242 0.051022 0.000000 -0.060465 -0.180225 14.087930 169.435257
[null_rope03_connect]
7 -1.257226 -2.466202 137.391083 -19.516476 -86.897766 82.020821 137.418976
8 -1.257226 -2.466202 137.391083 -19.502584 -85.901749 82.263519 137.418976
[null_rope04_connect]
7 -1.259640 -2.480268 -137.844437 -19.516476 -86.897766 82.020821 137.872513
8 -1.259640 -2.480268 -137.844437 -19.502584 -85.901749 82.263519 137.872513
[Rope3_Seg01]
7 -0.000010 0.000000 -0.000102 -137.583054 41.649700 -82.454704 0.000102
8 -0.000010 0.000000 -0.000119 -134.285202 39.379677 -77.910843 0.000119
[Rope3_Seg02]
7 139.999924 -0.000119 0.000060 -5.303509 -16.823456 8.298938 139.999924
8 139.999924 -0.000119 0.000060 -3.812150 -14.698723 8.272956 139.999924
[Rope3_Seg03]
7 139.999924 -0.000119 0.000119 -4.757403 -19.482876 8.881207 139.999924
8 139.999924 -0.000119 0.000119 -3.792113 -17.164373 9.029233 139.999924
[Rope3_Seg04]
7 139.999924 0.000119 0.000000 -3.552489 -19.986303 9.539738 139.999924
8 139.999924 0.000119 0.000000 -3.697876 -19.557262 10.674232 139.999924
[Rope3_Seg05]
7 139.999924 -0.000238 0.000060 0.187445 0.293165 -2.797404 139.999924
8 139.999924 -0.000238 0.000060 0.065614 -2.456305 -0.444954 139.999924
[Rope3_Seg06]
7 139.999893 -0.000119 -0.000060 -1.758921 16.796680 -14.005610 139.999893
8 139.999893 -0.000119 -0.000060 -0.382030 11.899476 -9.930766 139.999893
[Rope3_Seg07]
7 139.999771 0.000060 -0.000119 -1.692552 14.144683 -12.076825 139.999771
8 139.999771 0.000060 -0.000119 -0.704061 11.492456 -9.963316 139.999771
[Rope3_Seg08]
7 139.999985 -0.000060 0.000000 -0.322274 6.421432 -5.769822 139.999985
8 139.999985 -0.000060 0.000000 -0.028909 5.636910 -5.349511 139.999985
[Rope3_Seg09]
7 90.185997 -0.000179 -0.000060 89.793228 -1.359877 -0.847183 90.185997
8 90.185997 -0.000179 -0.000060 89.793228 -1.359877 -0.847183 90.185997
[R_rear_hand01]
7 103.366196 -6.073594 -10.757982 -169.896027 22.621883 -54.548435 104.101845
8 103.366196 -6.073594 -10.757982 -168.239929 21.836601 -50.169044 104.101845
[R_rear_hand02]
7 100.509819 12.039542 -7.992327 -24.381296 31.099253 51.752319 101.543350
8 100.509819 12.039542 -7.992327 -26.552095 29.320543 47.442066 101.543350
[R_rear_hand03]
7 101.539970 5.215704 5.435467 80.187744 -54.464619 11.876318 101.819031
8 101.539970 5.215704 5.435467 81.061974 -50.389538 10.772509 101.819031
[Rope4_Seg01]
7 0.000010 0.000038 -0.000114 87.247978 41.332436 -54.104263 0.000121
8 0.000010 0.000038 -0.000114 84.928551 41.041378 -56.365154 0.000121
[Rope4_Seg02]
7 139.999985 0.000060 0.000119 10.800877 -5.082592 -16.834723 139.999985
8 139.999985 0.000060 0.000119 11.553184 -5.051366 -18.904144 139.999985
[Rope4_Seg03]
7 139.999924 0.000000 -0.000238 8.143653 -10.677624 -21.732435 139.999924
8 139.999924 0.000000 -0.000238 7.174620 -9.605550 -20.538784 139.999924
[Rope4_Seg04]
7 139.999985 0.000000 0.000119 3.730389 -12.958168 -27.854662 139.999985
8 139.999985 0.000000 0.000119 2.899126 -10.775335 -22.331923 139.999985
[Rope4_Seg05]
7 139.999802 -0.000060 -0.000119 -1.050424 -6.029240 -9.155128 139.999802
8 139.999802 -0.000060 -0.000119 -0.519962 -4.706343 -7.332635 139.999802
[Rope4_Seg06]
7 139.999924 0.000000 0.000060 1.999220 -3.106543 4.486182 139.999924
8 139.999924 0.000000 0.000060 0.828280 -1.657846 2.364080 139.999924
[Rope4_Seg07]
7 139.999802 0.000000 0.000000 5.961975 -2.650586 21.894480 139.999802
8 139.999802 0.000000 0.000000 2.789314 0.099444 13.929941 139.999802
[Rope4_Seg08]
7 139.999924 0.000000 0.000119 1.115608 -1.693794 16.869110 139.999924
8 139.999924 0.000000 0.000119 -0.269567 -0.368543 11.644998 139.999924
[Rope4_Seg09]
7 90.185791 0.000060 0.000060 -135.617828 2.228885 0.850567 90.185791
8 90.185791 0.000060 0.000060 -135.617828 2.228885 0.850567 90.185791
[L_rear_hand01]
7 101.696655 -8.392275 -7.654577 -31.684452 -23.583008 144.025742 102.329041
8 101.696655 -8.392275 -7.654577 -31.429779 -23.932976 143.406311 102.329041
[L_rear_hand02]
7 102.726799 -1.568258 5.773216 82.701553 38.753956 171.553619 102.900848
8 102.726799 -1.568258 5.773216 82.628304 39.414528 171.441589 102.900848
[L_rear_hand03]
7 104.552910 9.721220 -10.420293 -163.975403 -19.004421 -142.009338 105.519653
8 104.552910 9.721220 -10.420293 -164.198181 -19.188400 -141.332703 105.519653
